<svg xmlns="http://www.w3.org/2000/svg" width="229" height="100" viewBox="0 0 229 100">
  <defs>
    <style>
      .cls-1 {
        fill: none;
      }

      .cls-2 {
        fill: #bcbcbc;
      }
    </style>
  </defs>
  <g id="Airbnb" transform="translate(-537 -127)">
    <rect id="Rectangle_1" data-name="Rectangle 1" class="cls-1" width="229" height="100" transform="translate(537 127)"/>
    <path id="Path_1" data-name="Path 1" class="cls-2" d="M72.079,45.356a11,11,0,0,0-.813-3.884c-.375-.957-.81-1.889-1.236-2.824q-5.075-11.06-10.649-21.882c-.522-1.008-1.034-2.022-1.586-3.014a10.681,10.681,0,0,0-2-2.652A7.773,7.773,0,0,0,50.955,9h-.827a7.741,7.741,0,0,0-4.98,2.16,10.785,10.785,0,0,0-1.924,2.6c-.545.976-1.049,1.974-1.561,2.966q-3.739,7.258-7.258,14.628c-1.4,2.94-2.784,5.884-4.117,8.853a14.46,14.46,0,0,0-1.241,3.866,9.869,9.869,0,0,0,5.831,10.491,10.053,10.053,0,0,0,4.557.807,12.5,12.5,0,0,0,5.86-1.953,25.6,25.6,0,0,0,5.218-4.5A26.328,26.328,0,0,0,55.33,53.16a12.89,12.89,0,0,0,5.806,2.169A9.885,9.885,0,0,0,72.08,45.357Zm-21.557-.879c-.569-.669-1.069-1.393-1.573-2.112a25.887,25.887,0,0,1-2.235-3.911,12.843,12.843,0,0,1-1.074-3.573,6.168,6.168,0,0,1,.273-2.945A4.341,4.341,0,0,1,47.645,29.8a5.37,5.37,0,0,1,6.249.389,4.541,4.541,0,0,1,1.5,2.93,9.442,9.442,0,0,1-.684,4.347,27.783,27.783,0,0,1-4.191,7.013Zm18.4,3.139a6.969,6.969,0,0,1-3.282,4.113,7.165,7.165,0,0,1-4.64.786,11.6,11.6,0,0,1-5.366-2.633,28.477,28.477,0,0,1-3.167-3.059,36.483,36.483,0,0,0,4.155-6.3,15.553,15.553,0,0,0,1.8-6.344,8.34,8.34,0,0,0-.885-4.1,7.533,7.533,0,0,0-4.181-3.591,8.557,8.557,0,0,0-5.185-.163,7.511,7.511,0,0,0-5.537,6.756,13.1,13.1,0,0,0,1.13,6.06,32.012,32.012,0,0,0,4.788,7.66,26.159,26.159,0,0,1-2.778,2.761,12.5,12.5,0,0,1-5.3,2.871,7.273,7.273,0,0,1-4.838-.567A6.955,6.955,0,0,1,32.065,47.5a7.176,7.176,0,0,1,.158-4.206c.38-1.114.9-2.176,1.377-3.248Q38.622,29.106,44.131,18.4c.548-1.062,1.087-2.129,1.666-3.174a7.128,7.128,0,0,1,1.8-2.259,4.811,4.811,0,0,1,5.969.112,8.317,8.317,0,0,1,1.889,2.564c1.135,2.132,2.225,4.288,3.315,6.442q4.668,9.238,8.968,18.655a22.6,22.6,0,0,1,1.188,2.972,7.141,7.141,0,0,1,0,3.906ZM34.28,61.116a1.9,1.9,0,1,1-.688.293,1.936,1.936,0,0,1,.691-.3Zm6.329,6.144a3.721,3.721,0,0,1,2.179-1.12,5.116,5.116,0,0,1,1.633.1c-.007.864,0,1.726,0,2.59a4.34,4.34,0,0,0-2.574.041,3.066,3.066,0,0,0-1.179.775c-.071.06-.054.158-.06.242v7.239a.828.828,0,0,1-.027.284c-.932.022-1.865,0-2.8.008V66.382h2.356a.417.417,0,0,1,.42.247,2.278,2.278,0,0,1,.055.63Zm20.09.01a4.032,4.032,0,0,1,2.887-1.153,4.7,4.7,0,0,1,3.135,1.03,3.411,3.411,0,0,1,1.185,1.782,9.439,9.439,0,0,1,.221,2.649v5.847c-.94,0-1.879.006-2.819,0V71.582a4.1,4.1,0,0,0-.351-2.149,1.682,1.682,0,0,0-1.31-.747,3.071,3.071,0,0,0-2.664.942.354.354,0,0,0-.125.27c-.009.3.037.6.011.9-.037.41.021.819.007,1.23q-.018,1.162,0,2.323c-.053,1.024.04,2.052-.022,3.075H58.047c0-3.68-.007-7.36,0-11.04.724.006,1.449,0,2.172,0a.418.418,0,0,1,.44.283,3.09,3.09,0,0,1,.036.6ZM33.253,77.424V66.384h2.8c.007,3.68,0,7.359,0,11.038ZM31.516,66.385H29.3c-.2,0-.445.008-.54.214a1.918,1.918,0,0,0-.06.667,3.75,3.75,0,0,0-2.371-1.128,5.679,5.679,0,0,0-3.9,1.091,5.521,5.521,0,0,0-1.931,2.71,7.105,7.105,0,0,0-.308,1.552v.756a5.816,5.816,0,0,0,2.01,4.161,5.711,5.711,0,0,0,3.32,1.3h.628a3.8,3.8,0,0,0,2.55-1.171,1.965,1.965,0,0,0,.058.674.48.48,0,0,0,.471.214h2.289V66.391Zm-2.9,7.6a2.989,2.989,0,0,1-2.351,1.059,3.088,3.088,0,0,1-3.21-3.722,2.907,2.907,0,0,1,1.069-1.9,3.433,3.433,0,0,1,1.89-.689,3.07,3.07,0,0,1,2.68,1.171c.034,1.2,0,2.4.016,3.6-.01.158.034.349-.094.473ZM56.44,69.543a5.5,5.5,0,0,0-2.181-2.588,5.723,5.723,0,0,0-3.391-.829,3.794,3.794,0,0,0-2.488,1.138V61.08H45.559c0,5.445-.008,10.893.007,16.337H47.9a.429.429,0,0,0,.456-.287,3.3,3.3,0,0,0,.025-.607A3.771,3.771,0,0,0,50.962,77.7h.576a5.614,5.614,0,0,0,4.076-2.039,6.184,6.184,0,0,0,.829-6.126Zm-3.288,4.645a3.42,3.42,0,0,1-2.353.856,2.979,2.979,0,0,1-2.338-1.075.339.339,0,0,1-.087-.263V69.917a3.121,3.121,0,0,1,2.289-1.188,3.454,3.454,0,0,1,2.495.869,3.333,3.333,0,0,1-.006,4.59Zm26.483-6.011a5.6,5.6,0,0,0-5.145-2.006,3.716,3.716,0,0,0-2.106,1.093c-.006-2.06,0-4.121,0-6.182H69.57V77.421c.74.006,1.481,0,2.221.006.194,0,.437-.013.537-.211a1.931,1.931,0,0,0,.06-.679,3.808,3.808,0,0,0,2.537,1.172h.634a5.618,5.618,0,0,0,4.035-2.015,5.941,5.941,0,0,0,1.3-3.444v-.738a6,6,0,0,0-1.257-3.335Zm-2.2,5.694A3.417,3.417,0,0,1,74.216,75,2.913,2.913,0,0,1,72.4,73.877c-.047-.464,0-.932-.019-1.4.01-.857-.021-1.716.014-2.572a3.048,3.048,0,0,1,1.812-1.121,3.3,3.3,0,0,1,3.47,1.476,3.419,3.419,0,0,1-.239,3.609Z" transform="translate(601.276 134.001)"/>
  </g>
</svg>
