<svg xmlns="http://www.w3.org/2000/svg" width="229" height="100" viewBox="0 0 229 100">
  <defs>
    <style>
      .cls-1 {
        fill: none;
      }

      .cls-2 {
        fill: #bcbcbc;
      }
    </style>
  </defs>
  <g id="Apple" transform="translate(-776 -127)">
    <rect id="Rectangle_2" data-name="Rectangle 2" class="cls-1" width="229" height="100" transform="translate(776 127)"/>
    <path id="logo_apple" class="cls-2" d="M46.263,36.142a15.036,15.036,0,0,0,9.131,13.765,37.232,37.232,0,0,1-4.708,9.676c-2.836,4.144-5.778,8.273-10.414,8.359-4.555.084-6.02-2.7-11.228-2.7S22.21,67.856,17.9,68.026c-4.475.169-7.882-4.481-10.741-8.611C1.315,50.969-3.15,35.548,2.845,25.139a16.654,16.654,0,0,1,14.077-8.527c4.394-.084,8.542,2.956,11.228,2.956s7.725-3.656,13.023-3.119A15.892,15.892,0,0,1,53.615,23.2c-.322.2-7.429,4.337-7.352,12.944M37.7,10.862A14.984,14.984,0,0,0,41.241,0,15.25,15.25,0,0,0,31.219,5.156c-2.2,2.545-4.129,6.619-3.609,10.523,3.817.3,7.716-1.94,10.092-4.817" transform="translate(863 143)"/>
  </g>
</svg>
