<svg xmlns="http://www.w3.org/2000/svg" width="188" height="56" viewBox="0 0 188 56">
  <defs>
    <style>
      .cls-1 {
        fill: none;
      }

      .cls-2 {
        fill: #bcbcbc;
      }
    </style>
  </defs>
  <g id="paypal" transform="translate(-617 -1695)">
    <rect id="Rectangle_12" data-name="Rectangle 12" class="cls-1" width="188" height="56" transform="translate(617 1695)"/>
    <path id="paypal-2" data-name="paypal" class="cls-2" d="M6.1,26.7a.629.629,0,0,1-.617-.725l.354-2.241H.712a.713.713,0,0,1-.7-.823L3.049,3.628,3.463,1A1.189,1.189,0,0,1,4.638,0h8.3c2.685,0,4.819.533,6.092,1.765q.124.12.237.248a4.75,4.75,0,0,1,1.243,3.205q0,.084,0,.169a9.141,9.141,0,0,1-.119,1.4,4.126,4.126,0,0,1,1.178.909c1.057,1.2,1.263,2.92.864,4.973-.957,4.913-4.232,6.614-8.415,6.614h-.643a1.039,1.039,0,0,0-1.026.877l-.051.285L11.483,25.6l-.042.221a1.04,1.04,0,0,1-1.025.878ZM7.088,15.8l0-.02V15.77l0,.014ZM60,26.7a.477.477,0,0,1-.39-.753l2.855-4.028-3.032-8.911a.478.478,0,0,1,.452-.632h2.71a.8.8,0,0,1,.763.569l1.612,5.382,3.8-5.6a.792.792,0,0,1,.657-.349h2.758l0,0a.479.479,0,0,1,.392.751L63.405,26.357a.8.8,0,0,1-.653.341ZM45.708,21.853a5.179,5.179,0,0,1-1.021-4.215,6.308,6.308,0,0,1,6.123-5.517c1.322,0,2.649.288,3.24,1.15l.193.278.12-.767a.476.476,0,0,1,.472-.4h2.743v0a.479.479,0,0,1,.472.552l-1.483,9.391a.8.8,0,0,1-.787.672H53.31a.479.479,0,0,1-.364-.167.473.473,0,0,1-.108-.384l.122-.762a5.248,5.248,0,0,1-3.8,1.568q-.141.009-.28.009A4.288,4.288,0,0,1,45.708,21.853Zm2.678-4.181a2.122,2.122,0,0,0,2.272,2.661,3.058,3.058,0,0,0,3.1-2.619v0a2.36,2.36,0,0,0-.464-1.939,2.312,2.312,0,0,0-1.829-.747h-.036A3.069,3.069,0,0,0,48.387,17.672Zm38.175,4.181a5.179,5.179,0,0,1-1.021-4.215,6.308,6.308,0,0,1,6.123-5.517c1.321,0,2.648.288,3.24,1.15l.192.278.12-.767a.478.478,0,0,1,.473-.4h2.741a.479.479,0,0,1,.472.552l-1.482,9.391a.8.8,0,0,1-.787.672h-2.47a.475.475,0,0,1-.47-.552l.122-.762a5.248,5.248,0,0,1-3.8,1.568q-.141.009-.281.009A4.289,4.289,0,0,1,86.562,21.853Zm2.678-4.181a2.121,2.121,0,0,0,2.272,2.661,3.058,3.058,0,0,0,3.1-2.619v0a2.364,2.364,0,0,0-.465-1.939,2.311,2.311,0,0,0-1.829-.747h-.036A3.067,3.067,0,0,0,89.24,17.672Zm-13.35,5.317H72.951a.478.478,0,0,1-.472-.552L74.791,7.752a.8.8,0,0,1,.787-.672h5.728l0,0a5.311,5.311,0,0,1,4.174,1.464,4.41,4.41,0,0,1,.731,3.7c-.569,3.619-2.749,5.444-6.52,5.444H77.884a.8.8,0,0,0-.787.672l-.657,4.165a.556.556,0,0,1-.548.469Zm2.417-12.331L77.7,14.5h.864c1.518,0,3.089,0,3.4-2.056v0a1.912,1.912,0,0,0-.278-1.6c-.5-.591-1.479-.591-2.514-.591h-.4A.478.478,0,0,0,78.307,10.658ZM32.1,22.989a.478.478,0,0,1-.472-.552L33.943,7.752a.8.8,0,0,1,.787-.672h5.728l0,0A5.311,5.311,0,0,1,44.633,8.54a4.407,4.407,0,0,1,.731,3.7c-.569,3.62-2.749,5.445-6.52,5.445H37.032a.8.8,0,0,0-.787.672l-.625,3.962a.8.8,0,0,1-.786.672Zm5.36-12.331L36.851,14.5h.865c1.518,0,3.089,0,3.4-2.056v0a1.913,1.913,0,0,0-.279-1.6c-.5-.591-1.479-.591-2.514-.591h-.4A.478.478,0,0,0,37.458,10.658Zm62.325,12.33a.478.478,0,0,1-.472-.552L101.66,7.48h0a.477.477,0,0,1,.472-.4h2.646a.478.478,0,0,1,.472.552l-2.318,14.687a.8.8,0,0,1-.787.672Z" transform="translate(658 1710)"/>
  </g>
</svg>
