<svg xmlns="http://www.w3.org/2000/svg" width="188" height="56" viewBox="0 0 188 56">
  <defs>
    <style>
      .cls-1 {
        fill: none;
      }

      .cls-2 {
        fill: #bcbcbc;
      }
    </style>
  </defs>
  <g id="stripe" transform="translate(-1118 -1695)">
    <rect id="Rectangle_14" data-name="Rectangle 14" class="cls-1" width="188" height="56" transform="translate(1118 1695)"/>
    <path id="stripe-2" data-name="stripe" class="cls-2" d="M66.368,30.432c-1.35,0-1.209,1.66-1.262,3.43h2.249c0-2,0-3.43-.984-3.43Zm-1.262,6.326c0,1.6.787,1.912,2.109,1.912a26.81,26.81,0,0,0,4.357-.59v3.88a14.513,14.513,0,0,1-4.357.756c-3.346,0-7.423-.531-7.423-7.675,0-6.3,3.206-7.787,6.579-7.787,3.459,0,5.96,1.771,5.96,7.732v1.771H65.1ZM51.915,31.194a3.435,3.435,0,0,0-1.262.45v7.2a3.683,3.683,0,0,0,.9.141c.93,0,1.49-.787,1.49-4.077,0-3.346-.254-3.711-1.125-3.711Zm.618,11.527a8.764,8.764,0,0,1-1.884-.309v5.37H45.308V27.539h4.33l.787.93A4.831,4.831,0,0,1,53.6,27.259c2.191,0,4.78.618,4.78,7.647,0,7.7-3.881,7.815-5.849,7.815ZM40.387,25.712a2.646,2.646,0,1,1,1.878-.785,2.646,2.646,0,0,1-1.878.785ZM37.716,42.44v-14.9h5.341v14.9ZM34.482,31.728a3.493,3.493,0,0,0-1.771.506V42.44H27.369v-14.9h4.245l.784,1.433a2.465,2.465,0,0,1,2.39-1.715,3.669,3.669,0,0,1,1.66.309v4.442a7.905,7.905,0,0,0-1.967-.28Zm-10.15,6.944c.337,0,1.518-.169,1.912-.225v3.8a20.215,20.215,0,0,1-3.8.478c-1.518,0-4.358-.169-4.358-4.3V30.941H16.122v-3.4H18.09l.675-3.374,4.67-1.125v4.5h2.811l-.7,3.4H23.435v6.523c0,1.012.309,1.208.9,1.208ZM10.525,31.84c0,.59.394.787,1.321,1.209l.562.253c1.321.59,3.148,1.546,3.148,4.358,0,4.5-3.346,5.061-5.735,5.061a15.423,15.423,0,0,1-4.273-.7V38.167a18.742,18.742,0,0,0,3.346.647c.815,0,1.434-.112,1.434-.843,0-.562-.394-.815-1.262-1.208l-.675-.309a4.5,4.5,0,0,1-3.065-4.33c0-3.992,3.121-4.863,5.735-4.863a10.684,10.684,0,0,1,3.936.7V31.7a13.862,13.862,0,0,0-3.346-.59C11,31.11,10.525,31.278,10.525,31.84Z" transform="translate(1172.672 1688.58)"/>
  </g>
</svg>
