<svg xmlns="http://www.w3.org/2000/svg" xmlns:xlink="http://www.w3.org/1999/xlink" width="291.517" height="75.786" viewBox="0 0 291.517 75.786">
  <defs>
    <style>
      .cls-1 {
        fill: none;
      }

      .cls-2 {
        fill: #850fe9;
      }

      .cls-3 {
        fill: #d800bb;
      }

      .cls-4 {
        clip-path: url(#clip-path);
      }
    </style>
    <clipPath id="clip-path">
      <rect id="Rectangle_3" data-name="Rectangle 3" class="cls-1" width="199.517" height="47.541"/>
    </clipPath>
  </defs>
  <g id="brandlogo" transform="translate(-344 -540)">
    <g id="brand" transform="translate(344 -61)">
      <path id="Rectangle_1" data-name="Rectangle 1" class="cls-2" d="M17.067,0h7.768A17.067,17.067,0,0,1,41.9,17.067v0A17.067,17.067,0,0,1,24.835,34.134H0a0,0,0,0,1,0,0V17.067A17.067,17.067,0,0,1,17.067,0Z" transform="translate(0 601)"/>
      <path id="Rectangle_2" data-name="Rectangle 2" class="cls-3" d="M0,0H38.716A16.981,16.981,0,0,1,55.7,16.981v0A16.981,16.981,0,0,1,38.716,33.962H16.981A16.981,16.981,0,0,1,0,16.981V0A0,0,0,0,1,0,0Z" transform="translate(0 642.824)"/>
    </g>
    <g id="Group_1" data-name="Group 1" transform="translate(436 559)">
      <g id="Group_1-2" data-name="Group 1" class="cls-4">
        <path id="Path_4" data-name="Path 4" class="cls-3" d="M0,36.271V11.615A9.653,9.653,0,0,1,9.652,1.962H12.49q5.74,0,8.827,2.1A6.773,6.773,0,0,1,24.4,10a7.02,7.02,0,0,1-1.878,4.856,9.865,9.865,0,0,1-4.8,2.9v.095a9.516,9.516,0,0,1,5.851,2.7,7.563,7.563,0,0,1,2.187,5.478,9.156,9.156,0,0,1-3.373,7.477q-3.372,2.763-9.212,2.763ZM7.727,10.552v5.239h3.4a5.668,5.668,0,0,0,3.769-1.16,3.955,3.955,0,0,0,1.376-3.195q0-3.78-5.646-3.78a2.9,2.9,0,0,0-2.9,2.9m0,10.981v9.044h4.187a6.454,6.454,0,0,0,4.2-1.244,4.16,4.16,0,0,0,1.517-3.4,3.878,3.878,0,0,0-1.5-3.23,6.618,6.618,0,0,0-4.175-1.172Z"/>
        <path id="Path_5" data-name="Path 5" class="cls-3" d="M37.994,27.969a3.357,3.357,0,0,0,.741,2.357,2.572,2.572,0,0,0,1.987.8,6.681,6.681,0,0,0,2.369-.438l.119.08V36.08a26.708,26.708,0,0,1-2.884.586,21.343,21.343,0,0,1-3.17.228,7.168,7.168,0,0,1-2.739-.5,5.808,5.808,0,0,1-2.106-1.447,6.563,6.563,0,0,1-1.351-2.286,8.885,8.885,0,0,1-.479-3.013V3.757a3.756,3.756,0,1,1,7.513,0Z"/>
        <path id="Path_6" data-name="Path 6" class="cls-3" d="M65.939,36.272h-.072a3.732,3.732,0,0,1-3.733-3.732h-.119a8.552,8.552,0,0,1-7.489,4.33q-8.519,0-8.518-10.312V15.541a3.768,3.768,0,1,1,7.537,0V25.888q0,5.192,4.116,5.193a4.073,4.073,0,0,0,3.254-1.424,5.744,5.744,0,0,0,1.219-3.864V15.5a3.732,3.732,0,0,1,3.733-3.732h.072A3.732,3.732,0,0,1,69.671,15.5V32.54a3.732,3.732,0,0,1-3.732,3.732"/>
        <path id="Path_7" data-name="Path 7" class="cls-3" d="M96.23,47.541h0a3.781,3.781,0,0,1-3.781-3.781V32.9h-.1a8.4,8.4,0,0,1-7.537,3.971,9.381,9.381,0,0,1-7.429-3.218q-2.811-3.216-2.812-9.032,0-6.125,3.087-9.785a10.016,10.016,0,0,1,8.039-3.66,7.293,7.293,0,0,1,6.652,3.445h.1A2.848,2.848,0,0,1,95.3,11.771a4.713,4.713,0,0,1,4.713,4.713V43.76a3.78,3.78,0,0,1-3.78,3.781M92.593,24.572V22.609a5.98,5.98,0,0,0-1.388-4.019,4.475,4.475,0,0,0-3.565-1.627,4.614,4.614,0,0,0-3.947,1.974A9.143,9.143,0,0,0,82.257,24.4a7.5,7.5,0,0,0,1.572,5.111,5.463,5.463,0,0,0,4.324,1.5,4.6,4.6,0,0,0,2.992-1.734,7.272,7.272,0,0,0,1.448-4.713"/>
        <path id="Path_8" data-name="Path 8" class="cls-3" d="M125.921,36.272h-.071a3.732,3.732,0,0,1-3.733-3.732H122a8.55,8.55,0,0,1-7.488,4.33q-8.519,0-8.518-10.312V15.54a3.768,3.768,0,0,1,7.536,0V25.888q0,5.192,4.116,5.193a4.073,4.073,0,0,0,3.254-1.424,5.745,5.745,0,0,0,1.22-3.864V15.54a3.769,3.769,0,0,1,3.768-3.768h0a3.768,3.768,0,0,1,3.767,3.768v17a3.732,3.732,0,0,1-3.732,3.732"/>
        <path id="Path_9" data-name="Path 9" class="cls-3" d="M158.029,26.175H142.046q.382,5.334,6.724,5.335a13.125,13.125,0,0,0,7.1-1.914,7.157,7.157,0,0,1-6.472,7.18q-1.125.093-2.355.093-5.936,0-9.213-3.289T134.558,24.4q0-6.1,3.541-9.666a11.794,11.794,0,0,1,8.709-3.564q5.358,0,8.29,3.181t2.931,8.637Zm-7.009-4.642q0-5.264-4.26-5.264a4.063,4.063,0,0,0-3.146,1.508A6.846,6.846,0,0,0,142,21.533Z"/>
        <path id="Path_10" data-name="Path 10" class="cls-3" d="M178.51,16.033a1.9,1.9,0,0,1-2.149,1.88,8.014,8.014,0,0,0-1.033-.064,4.583,4.583,0,0,0-3.852,1.807,7.879,7.879,0,0,0-1.388,4.917v7.918a3.78,3.78,0,1,1-7.56,0V15.552a3.78,3.78,0,1,1,7.56,0v.766h.1q1.794-4.977,6.46-4.977h.023a1.884,1.884,0,0,1,1.843,1.9Z"/>
        <path id="Path_11" data-name="Path 11" class="cls-3" d="M180.711,33.639h0a2.676,2.676,0,0,1,3.518-2.524l.2.061a12.361,12.361,0,0,0,3.5.55,7.535,7.535,0,0,0,3.17-.55,1.778,1.778,0,0,0,1.161-1.666,1.7,1.7,0,0,0-.6-1.267,5.056,5.056,0,0,0-1.283-.776,15.351,15.351,0,0,0-1.806-.646q-.981-.288-1.891-.646a18.27,18.27,0,0,1-2.572-1.184,7.468,7.468,0,0,1-1.866-1.471,5.8,5.8,0,0,1-1.148-1.939,7.731,7.731,0,0,1-.4-2.608,6.717,6.717,0,0,1,.9-3.541A7.334,7.334,0,0,1,184,13a10.915,10.915,0,0,1,3.421-1.387,17.846,17.846,0,0,1,4.008-.443,22.17,22.17,0,0,1,3.3.251q.723.108,1.439.259a2.371,2.371,0,0,1,1.862,2.326v.377a2.435,2.435,0,0,1-3.041,2.358l-.033-.008a12.93,12.93,0,0,0-3.218-.419,7.11,7.11,0,0,0-1.4.132,4.553,4.553,0,0,0-1.16.382,2.122,2.122,0,0,0-.789.646,1.484,1.484,0,0,0-.287.9,1.66,1.66,0,0,0,.43,1.149,3.726,3.726,0,0,0,1.124.825,11.164,11.164,0,0,0,1.543.622q.851.276,1.688.563a21.705,21.705,0,0,1,2.727,1.148,8.718,8.718,0,0,1,2.093,1.459,5.728,5.728,0,0,1,1.34,1.963,6.969,6.969,0,0,1,.467,2.68,6.975,6.975,0,0,1-.946,3.719,7.561,7.561,0,0,1-2.511,2.513,11.411,11.411,0,0,1-3.614,1.411,20.024,20.024,0,0,1-4.246.442,22.845,22.845,0,0,1-5.494-.639,2.658,2.658,0,0,1-1.995-2.591"/>
      </g>
    </g>
  </g>
</svg>
