<svg xmlns="http://www.w3.org/2000/svg" width="19.697" height="19.213" viewBox="0 0 19.697 19.213">
  <path id="lightmode" d="M9.233,18.6V17.366a.616.616,0,0,1,1.231,0V18.6a.616.616,0,0,1-1.231,0Zm7.141-1.847a.628.628,0,0,1-.431-.178l-.874-.875a.616.616,0,0,1,.874-.868l.868.868a.616.616,0,0,1-.432,1.053ZM2.887,16.573a.609.609,0,0,1,0-.875l.868-.868a.613.613,0,0,1,.868.868l-.868.875a.617.617,0,0,1-.868,0ZM3.694,9.6A6.155,6.155,0,1,1,9.849,15.76,6.155,6.155,0,0,1,3.694,9.6Zm14.157.616a.616.616,0,1,1,0-1.231h1.231a.616.616,0,1,1,0,1.231Zm-17.235,0a.616.616,0,0,1,0-1.231H1.847a.616.616,0,0,1,0,1.231ZM15.069,4.385a.6.6,0,0,1-.179-.437.618.618,0,0,1,.179-.437l.874-.868a.613.613,0,0,1,.868.868l-.868.875a.623.623,0,0,1-.874,0ZM4.186,4.563a.628.628,0,0,1-.431-.178L2.881,3.51a.616.616,0,0,1,.874-.868l.868.868A.616.616,0,0,1,4.19,4.563ZM9.233,1.847V.616a.616.616,0,0,1,1.231,0V1.847a.616.616,0,0,1-1.231,0Z"/>
</svg>
