<svg xmlns="http://www.w3.org/2000/svg" width="30.928" height="30.928" viewBox="0 0 30.928 30.928">
  <defs>
    <style>
      .cls-1 {
        fill: #231833;
      }
    </style>
  </defs>
  <path id="linkedin" class="cls-1" d="M28.719,32H2.2A2.219,2.219,0,0,0,0,34.23V60.7a2.219,2.219,0,0,0,2.2,2.23H28.719a2.225,2.225,0,0,0,2.209-2.23V34.23A2.225,2.225,0,0,0,28.719,32ZM9.347,58.51H4.763V43.75H9.354V58.51ZM7.055,41.734a2.658,2.658,0,1,1,2.658-2.658A2.659,2.659,0,0,1,7.055,41.734ZM26.531,58.51H21.947V51.33c0-1.712-.035-3.914-2.382-3.914-2.389,0-2.755,1.864-2.755,3.79v7.3H12.226V43.75h4.4v2.016h.062a4.828,4.828,0,0,1,4.342-2.382c4.639,0,5.5,3.058,5.5,7.035Z" transform="translate(0 -32)"/>
</svg>
