<svg xmlns="http://www.w3.org/2000/svg" width="105.738" height="82.316" viewBox="0 0 105.738 82.316">
  <defs>
    <style>
      .cls-1 {
        fill: #1f003a;
        opacity: 0.06;
      }
    </style>
  </defs>
  <path id="quote" class="cls-1" d="M121.526-754.492Q94.539-707.6,87.017-706.71q-3.1.442-3.1-6.636,0-4.425,1.77-19.466,1.77-11.5.442-12.388-10.618-6.194-10.618-19.024a23.216,23.216,0,0,1,3.539-12.388Q86.132-789,99.4-789q9.733,0,17.033,7.964t7.3,17.255A20.511,20.511,0,0,1,121.526-754.492Zm-57.514,0Q37.024-707.6,29.5-706.71q-3.1.442-3.1-6.636,0-4.425,1.77-19.466,1.77-11.5.442-12.388Q18-751.394,18-764.225a23.216,23.216,0,0,1,3.539-12.388Q28.618-789,41.891-789q9.733,0,17.033,7.964t7.3,17.255A20.511,20.511,0,0,1,64.012-754.492Z" transform="translate(123.738 -706.684) rotate(180)"/>
</svg>
