<svg xmlns="http://www.w3.org/2000/svg" width="30.928" height="30.928" viewBox="0 0 30.928 30.928">
  <defs>
    <style>
      .cls-1 {
        fill: #231833;
      }
    </style>
  </defs>
  <path id="slack" class="cls-1" d="M6.5,51.544A3.249,3.249,0,1,1,3.249,48.3H6.5Zm1.638,0a3.249,3.249,0,1,1,6.5,0v8.135a3.249,3.249,0,0,1-6.5,0V51.544ZM11.384,38.5a3.249,3.249,0,1,1,3.249-3.249V38.5H11.384Zm0,1.638a3.249,3.249,0,1,1,0,6.5H3.249a3.249,3.249,0,0,1,0-6.5h8.135ZM24.43,43.384a3.249,3.249,0,1,1,3.249,3.249H24.43Zm-1.638,0a3.249,3.249,0,1,1-6.5,0V35.249a3.249,3.249,0,1,1,6.5,0ZM19.544,56.43A3.249,3.249,0,1,1,16.3,59.679V56.43Zm0-1.638a3.249,3.249,0,1,1,0-6.5h8.135a3.249,3.249,0,1,1,0,6.5Z" transform="translate(0 -32)"/>
</svg>
