<svg xmlns="http://www.w3.org/2000/svg" xmlns:xlink="http://www.w3.org/1999/xlink" width="554" height="308" viewBox="0 0 554 308">
  <defs>
    <linearGradient id="linear-gradient" x1="0.5" x2="0.5" y2="1" gradientUnits="objectBoundingBox">
      <stop offset="0" stop-color="#1d7cf8"/>
      <stop offset="1" stop-color="#5e00d8"/>
    </linearGradient>
    <linearGradient id="linear-gradient-2" x2="1.483" y2="0.298" xlink:href="#linear-gradient"/>
    <filter id="Ellipse_50" x="36" y="56" width="202" height="202" filterUnits="userSpaceOnUse">
      <feOffset dy="3" input="SourceAlpha"/>
      <feGaussianBlur stdDeviation="3" result="blur"/>
      <feFlood flood-opacity="0.161"/>
      <feComposite operator="in" in2="blur"/>
      <feComposite in="SourceGraphic"/>
    </filter>
    <filter id="Ellipse_49" x="246" y="0" width="308" height="308" filterUnits="userSpaceOnUse">
      <feOffset dx="-10" input="SourceAlpha"/>
      <feGaussianBlur stdDeviation="5" result="blur-2"/>
      <feFlood flood-opacity="0.161"/>
      <feComposite operator="in" in2="blur-2"/>
      <feComposite in="SourceGraphic"/>
    </filter>
    <filter id="Ellipse_52" x="333" y="81" width="155" height="152" filterUnits="userSpaceOnUse">
      <feOffset dy="3" input="SourceAlpha"/>
      <feGaussianBlur stdDeviation="5" result="blur-3"/>
      <feFlood flood-opacity="0.161"/>
      <feComposite operator="in" in2="blur-3"/>
      <feComposite in="SourceGraphic"/>
    </filter>
  </defs>
  <g id="slider" transform="translate(-4771 -2356)">
    <rect id="Rectangle_250" data-name="Rectangle 250" width="519" height="247" rx="100" transform="translate(4771 2390)" fill="url(#linear-gradient)"/>
    <g transform="matrix(1, 0, 0, 1, 4771, 2356)" filter="url(#Ellipse_50)">
      <circle id="Ellipse_50-2" data-name="Ellipse 50" cx="92" cy="92" r="92" transform="translate(45 62)" fill="url(#linear-gradient-2)"/>
    </g>
    <circle id="Ellipse_51" data-name="Ellipse 51" cx="92" cy="92" r="92" transform="translate(5059 2418)" fill="url(#linear-gradient-2)"/>
    <g transform="matrix(1, 0, 0, 1, 4771, 2356)" filter="url(#Ellipse_49)">
      <circle id="Ellipse_49-2" data-name="Ellipse 49" cx="139" cy="139" r="139" transform="translate(271 15)" fill="url(#linear-gradient-2)"/>
    </g>
    <ellipse id="Ellipse_55" data-name="Ellipse 55" cx="50.5" cy="50" rx="50.5" ry="50" transform="translate(4857 2460)" fill="#2a62f1"/>
    <g transform="matrix(1, 0, 0, 1, 4771, 2356)" filter="url(#Ellipse_52)">
      <ellipse id="Ellipse_52-2" data-name="Ellipse 52" cx="62.5" cy="61" rx="62.5" ry="61" transform="translate(348 93)" fill="#2a62f1"/>
    </g>
    <g id="Ellipse_53" data-name="Ellipse 53" transform="translate(4840 2442)" fill="none" stroke="#fff" stroke-width="2">
      <ellipse cx="67" cy="68" rx="67" ry="68" stroke="none"/>
      <ellipse cx="67" cy="68" rx="66" ry="67" fill="none"/>
    </g>
    <g id="Ellipse_54" data-name="Ellipse 54" transform="translate(5090 2418)" fill="none" stroke="#fff" stroke-width="2">
      <ellipse cx="91.5" cy="92" rx="91.5" ry="92" stroke="none"/>
      <ellipse cx="91.5" cy="92" rx="90.5" ry="91" fill="none"/>
    </g>
  </g>
</svg>
