<svg xmlns="http://www.w3.org/2000/svg" width="30.928" height="30.928" viewBox="0 0 30.928 30.928">
  <defs>
    <style>
      .cls-1 {
        fill: #231833;
      }
    </style>
  </defs>
  <path id="twitter-square" class="cls-1" d="M27.614,32H3.314A3.315,3.315,0,0,0,0,35.314v24.3a3.315,3.315,0,0,0,3.314,3.314h24.3a3.315,3.315,0,0,0,3.314-3.314v-24.3A3.315,3.315,0,0,0,27.614,32ZM24.239,42.963c.014.193.014.394.014.587A12.794,12.794,0,0,1,11.37,56.432,12.823,12.823,0,0,1,4.418,54.4a9.538,9.538,0,0,0,1.091.055,9.078,9.078,0,0,0,5.62-1.933A4.534,4.534,0,0,1,6.9,49.383,4.88,4.88,0,0,0,8.94,49.3a4.528,4.528,0,0,1-3.624-4.446V44.8a4.525,4.525,0,0,0,2.043.573A4.518,4.518,0,0,1,5.343,41.6a4.471,4.471,0,0,1,.614-2.285,12.856,12.856,0,0,0,9.334,4.736,4.537,4.537,0,0,1,7.725-4.135,8.872,8.872,0,0,0,2.872-1.091A4.516,4.516,0,0,1,23.9,41.32a9.01,9.01,0,0,0,2.61-.7A9.53,9.53,0,0,1,24.239,42.963Z" transform="translate(0 -32)"/>
</svg>
