<svg xmlns="http://www.w3.org/2000/svg" width="30.928" height="30.928" viewBox="0 0 30.928 30.928">
  <defs>
    <style>
      .cls-1 {
        fill: #231833;
      }
    </style>
  </defs>
  <path id="facebook-square" class="cls-1" d="M27.614,32H3.314A3.314,3.314,0,0,0,0,35.314v24.3a3.314,3.314,0,0,0,3.314,3.314h9.475V52.413H8.44V47.464h4.349V43.692c0-4.291,2.554-6.661,6.467-6.661a26.349,26.349,0,0,1,3.833.334v4.211H20.93a2.475,2.475,0,0,0-2.79,2.674v3.214h4.748l-.759,4.949H18.139V62.928h9.475a3.314,3.314,0,0,0,3.314-3.314v-24.3A3.314,3.314,0,0,0,27.614,32Z" transform="translate(0 -32)"/>
</svg>
