<svg xmlns="http://www.w3.org/2000/svg" width="30.929" height="30.921" viewBox="0 0 30.929 30.921">
  <defs>
    <style>
      .cls-1 {
        fill: #231833;
      }
    </style>
  </defs>
  <path id="instagram" class="cls-1" d="M15.393,39.358a7.928,7.928,0,1,0,7.928,7.928A7.915,7.915,0,0,0,15.393,39.358Zm0,13.082a5.154,5.154,0,1,1,5.154-5.154A5.163,5.163,0,0,1,15.393,52.44Zm10.1-13.406a1.849,1.849,0,1,1-1.849-1.849A1.845,1.845,0,0,1,25.494,39.034Zm5.251,1.877a9.151,9.151,0,0,0-2.5-6.479,9.211,9.211,0,0,0-6.479-2.5c-2.553-.145-10.2-.145-12.758,0a9.2,9.2,0,0,0-6.479,2.491A9.181,9.181,0,0,0,.034,40.9c-.145,2.553-.145,10.2,0,12.758a9.151,9.151,0,0,0,2.5,6.479,9.223,9.223,0,0,0,6.479,2.5c2.553.145,10.2.145,12.758,0a9.151,9.151,0,0,0,6.479-2.5,9.211,9.211,0,0,0,2.5-6.479C30.889,51.108,30.889,43.463,30.744,40.91Zm-3.3,15.49a5.218,5.218,0,0,1-2.939,2.939c-2.035.807-6.865.621-9.115.621s-7.086.179-9.115-.621A5.218,5.218,0,0,1,3.339,56.4c-.807-2.035-.621-6.865-.621-9.115s-.179-7.086.621-9.115a5.218,5.218,0,0,1,2.939-2.939c2.035-.807,6.865-.621,9.115-.621s7.086-.179,9.115.621a5.218,5.218,0,0,1,2.939,2.939c.807,2.035.621,6.865.621,9.115S28.254,54.372,27.446,56.4Z" transform="translate(0.076 -31.825)"/>
</svg>
