<svg xmlns="http://www.w3.org/2000/svg" width="188" height="56" viewBox="0 0 188 56">
  <defs>
    <style>
      .cls-1 {
        fill: #bcbcbc;
        stroke: #bcbcbc;
      }

      .cls-2 {
        fill: none;
      }
    </style>
  </defs>
  <g id="mailchimp" transform="translate(-351 -1695)">
    <path id="mailchimp-2" data-name="mailchimp" class="cls-1" d="M52.233,29.226Zm82.325,7.461h.042a4.048,4.048,0,0,0,4.239-4.175,4.934,4.934,0,0,0-.99-3.137,3.476,3.476,0,0,0-2.773-1.315h-.023c-1.526,0-2.939,1.156-4.324,3.535l-.11.19-.071-.207c-.35-1.017-.662-1.865-.848-2.374-.131-.354-.188-.514-.2-.566a.56.56,0,0,0-.575-.417,1.027,1.027,0,0,0-.543.17.636.636,0,0,0-.311.433l-.009.028c-1.389,4.331-2.533,6.433-3.5,6.433a.429.429,0,0,1-.333-.139c-.254-.281-.192-.949-.105-1.873a17.182,17.182,0,0,0,.106-2.264,2.287,2.287,0,0,0-2.3-2.521c-1.753,0-2.89,1.865-3.413,2.98l-.156.332-.035-.366c-.131-1.378-.593-3.023-2.053-3.034-1.7,0-3,2-3.791,3.675l-.212.449.021-.5c.094-2.237.17-3.561.23-3.923a.949.949,0,0,0-.093-.755.763.763,0,0,0-.644-.161c-.545.035-.824.366-1.244,1.479-.689,1.826-2.443,6.075-3.842,6.075a.839.839,0,0,1-.659-.281c-.587-.673-.352-2.493-.027-5.01l.025-.191c.153-1.192-.109-1.446-.756-1.566a1.115,1.115,0,0,0-.2-.019c-.517,0-.763.5-1.242,1.871-.86,2.449-1.964,5.024-3.257,5.024a.9.9,0,0,1-.142-.011c-.685-.117-.67-1.133-.651-2.42a13.926,13.926,0,0,0-.085-2.2c-.193-1.279-.946-2.076-1.966-2.085-2.035,0-3.407,2.606-4.046,4.16l-.145.352-.048-.377q-.188-1.5-.247-3v-.037l.023-.03c3.808-4.795,5.518-8.255,5.541-11.219.014-1.894-.859-3.031-2.338-3.043-1.081,0-3.651.9-4.544,9.241a46.506,46.506,0,0,0-.27,4.712v.031l-.018.025c-1.742,2.522-5.462,6.861-9.1,6.861-3.29,0-5.915-2.661-5.915-7.36,0-6.3,4.458-10.166,7.813-10.166h.028a2.8,2.8,0,0,1,1.808.593,1.992,1.992,0,0,1,.713,1.6,2.914,2.914,0,0,1-.564,1.748c-.07.111-.141.221-.2.339a.447.447,0,0,0-.038.436.678.678,0,0,0,.588.247c.8,0,2.006-1.156,2.02-2.9.014-1.823-1.522-3.7-4.261-3.7-4.146,0-9.73,4.555-9.73,11.937,0,5.222,3.274,8.831,7.709,8.831,3.147,0,6.26-2.254,9.018-6.02l.17-.228.012.283c.059,1.378.159,2.459.231,3.256.047.509.085.878.08,1.081a1.482,1.482,0,0,0,.223.944.921.921,0,0,0,.763.282c.619,0,.744-.424.989-1.463l.07-.3c.3-1.262,1.43-5.381,3.123-5.381a.848.848,0,0,1,.641.245c.374.4.333,1.211.286,2.154a12.015,12.015,0,0,0,0,1.787c.159,1.6.848,2.379,2.109,2.388,1.294,0,2.644-1.393,3.356-2.688l.135-.244.053.274c.131.693.719,2.967,2.56,2.967,1.669,0,3.1-1.757,4.669-5.373l.205-.472-.013.515c-.033,1.37-.108,3.044-.108,4.338,0,1,.1,1.383.563,1.383l.105.005c.443,0,.745-.265.9-.788,1.181-4.115,2.2-6.031,3.212-6.031.99.008,1.083,1.818,1.162,5.016l.005.225c.024,1.118.064,1.611.763,1.619.527,0,.659-.415.933-1.435.053-.194.109-.408.176-.638.953-3.307,1.743-4.656,2.728-4.656.842.006.889.875.9,1.16a12.625,12.625,0,0,1-.092,1.865,12.808,12.808,0,0,0-.093,1.719,1.865,1.865,0,0,0,1.994,2.02c1.6,0,3.052-1.875,4.316-5.569l.085-.254.1.254c.23.581.529,1.367.806,2.305l.01.036-.015.034a22.418,22.418,0,0,0-2.1,7.376c-.016,2.135.95,3.522,2.459,3.534h.026c.822,0,2.739-.331,2.776-3.385a21.067,21.067,0,0,0-.878-5.263l-.069-.254.22.147a4.588,4.588,0,0,0,2.492.785Zm-41.3-10.361c.034-.763.1-1.511.19-2.216.593-4.542,1.831-7.715,3.012-7.715h.005c.563,0,.848.43.839,1.264-.017,2.055-1.319,4.991-3.863,8.733l-.2.293.015-.354Zm37.639,16.329a.922.922,0,0,1-.777.377,1.007,1.007,0,0,1-.848-.391c-.538-.72-.387-2.411.492-5.482.105-.367.219-.736.339-1.1l.1-.306.09.309c1.017,3.547,1.223,5.765.6,6.592Zm.319-9.082-.019-.034-.037-.118.018-.035c1.167-2.406,2.505-3.785,3.669-3.785h.012c1.314.01,2.223,1.193,2.211,2.876a2.652,2.652,0,0,1-.917,2.115,2.731,2.731,0,0,1-1.725.619,4.223,4.223,0,0,1-3.214-1.635ZM134.845,29.7Zm-78.1,6.591c1.8-.144,3.232-2.6,3.763-3.646l.137-.27.052.3c.254,1.473,1.056,3.948,3.561,3.968h.021a5.407,5.407,0,0,0,3.561-1.918l.092-.092.066.111a3.592,3.592,0,0,0,3.153,2.085,2.989,2.989,0,0,0,2.921-2.2.729.729,0,0,0-.16-.569.37.37,0,0,0-.556-.035l-.085.076a3.569,3.569,0,0,1-2,1.169c-1.017.05-1.771-.559-2.258-1.815l-.02-.053.034-.044c2.8-3.662,4.764-9.249,4.57-13-.089-1.735-.593-3.8-2.488-3.8h-.142A2.8,2.8,0,0,0,69,17.583c-1.762,1.966-2.677,6.806-2.343,12.33a12.4,12.4,0,0,0,.593,3.187l.019.054-.037.044c-1.039,1.214-2.064,1.883-2.883,1.883-1.979,0-1.913-3.318-1.756-6.07.034-.593.085-.972-.092-1.187a.787.787,0,0,0-.641-.232h-.036c-.7,0-.848.145-1.212,1.187-.749,2.171-2.23,5.815-3.718,5.815a1.144,1.144,0,0,1-.943-.424c-.722-.922-.17-3.222.267-5.068.079-.332.155-.651.22-.946a1.136,1.136,0,0,0-.085-.951,1,1,0,0,0-.874-.238c-.638.051-1.045.318-1.242,1.526l-.04.254-.148-.18a2.081,2.081,0,0,0-1.829-.9q-.132,0-.274.011a4.969,4.969,0,0,0-3.193,1.961A6.546,6.546,0,0,0,47.35,34.29c.007.09.02.176.033.261l.007.047-.032.036a2.657,2.657,0,0,1-1.895,1.028c-.975-.007-1.535-.732-1.535-1.939,0-2.035,1.377-8.159,1.377-10.376,0-2.36-1.051-3.646-2.878-3.659H42.4c-2.666,0-4.748,3.026-6.734,9.252q-.283.9-.55,1.8l-.279.933.085-.973q.27-3.13.377-6.274c.1-3.009-.308-4.945-1.244-5.92a2.706,2.706,0,0,0-2.042-.791h-.022c-3.263,0-4.826,5.5-5.965,9.386-.343,1.173-1.017,3.815-1.473,5.625l.268-.435c.2-2.276.783-7.978.744-11.071-.042-3.318-1.146-4.806-3.583-4.824h-.03a3.773,3.773,0,0,0-2.733,1.187,4.748,4.748,0,0,0-1.348,3.244c.018.668.424,1.263.738,1.263.2,0,.315-.27.363-.432.754-2.493,1.73-3.7,2.982-3.7a1.549,1.549,0,0,1,1.2.468c.978,1.05.8,3.884.478,9.03-.1,1.658-.222,3.537-.321,5.675q-.026.529-.062,1.057c-.095,1.484-.17,2.657.393,2.744a1.187,1.187,0,0,0,1.453-.908c.352-1.06,1.165-4,2.735-9.369,1.507-5.156,2.644-7.031,4.1-7.031,1.682,0,1.808,2.889,1.5,8.987-.065,1.292-.153,2.755-.221,4.349-.009.224-.019.441-.031.649-.064,1.319-.116,2.359.261,2.758a.64.64,0,0,0,.488.187c.729,0,.949-.639,1.312-1.7.064-.187.132-.387.209-.593,2.5-6.893,4.346-12.874,6.826-12.874.744,0,1.323.6,1.323,1.78,0,2.72-1.33,7.975-1.33,10.64a3.673,3.673,0,0,0,.794,2.414,2.783,2.783,0,0,0,2.156.943h.019a3.919,3.919,0,0,0,2.57-1.2l.085-.075.066.085a2.821,2.821,0,0,0,2.512,1.114A4.251,4.251,0,0,0,53.779,34.3l.094-.254.094.254a2.663,2.663,0,0,0,2.783,1.983Zm14.2-18.012h.026a.564.564,0,0,1,.46.263c.612.827.621,3.847-.432,7.283a24.518,24.518,0,0,1-2.338,5.364l-.148.246-.038-.285c-.109-.831-.163-1.7-.2-2.432-.269-5.194,1.3-10.367,2.672-10.439Zm-17.1,12.139c-.539,2.17-1.574,4.79-3.439,4.94l-.152.006c-.773,0-1.207-.509-1.29-1.506a5.185,5.185,0,0,1,1.373-3.73,2.7,2.7,0,0,1,1.892-1h.013a1.861,1.861,0,0,1,1.6,1.23l.014.031-.008.034ZM62.5,22.462a1.218,1.218,0,0,0-.019,2.437l.01.1v-.1a1.218,1.218,0,1,0,.008-2.437Zm43.285,0a1.218,1.218,0,0,0-.019,2.437l.009.1v-.1a1.218,1.218,0,0,0,.009-2.437Z" transform="translate(366.63 1693.839)"/>
    <rect id="Rectangle_11" data-name="Rectangle 11" class="cls-2" width="188" height="56" transform="translate(351 1695)"/>
  </g>
</svg>
