<svg xmlns="http://www.w3.org/2000/svg" width="20" height="16" viewBox="0 0 20 16">
  <defs>
    <style>
      .cls-1 {
        fill: #e8439e;
      }
    </style>
  </defs>
  <path id="mail-bulk" class="cls-1" d="M10,20.889c-1.6,0-3.2-1.4-4-2-4-2.8-5.2-3.8-6-4.4v8.4a2,2,0,0,0,2,2H18a2,2,0,0,0,2-2v-8.4c-.8.6-2,1.6-6,4.4C13.2,19.489,11.6,20.889,10,20.889Zm8-12H2a2,2,0,0,0-2,2v1c1.6,1.2,1.4,1.2,7.2,5.4.6.4,1.8,1.6,2.8,1.6s2.2-1.2,2.8-1.4c5.8-4.2,5.6-4.2,7.2-5.4v-1.2A2,2,0,0,0,18,8.889Z" transform="translate(0 -8.889)"/>
</svg>
