<svg xmlns="http://www.w3.org/2000/svg" width="188" height="56" viewBox="0 0 188 56">
  <defs>
    <style>
      .cls-1 {
        fill: none;
      }

      .cls-2 {
        fill: #bcbcbc;
        fill-rule: evenodd;
      }
    </style>
  </defs>
  <g id="sony" transform="translate(-860 -1695)">
    <rect id="Rectangle_13" data-name="Rectangle 13" class="cls-1" width="188" height="56" transform="translate(860 1695)"/>
    <path id="sony-2" data-name="sony" class="cls-2" d="M88.6,93.239a.362.362,0,0,0-.165-.319.68.68,0,0,0-.359-.072h-.638v1.473h.18v-.679h.331l.42.679h.214l-.445-.679c.262-.007.465-.114.465-.4Zm-.71.262h-.276V92.98h.42c.183,0,.384.028.384.255,0,.3-.319.267-.528.267ZM80.2,86.119l2.694-2.876a.914.914,0,0,0,.234-.486c0-.211-.182-.3-.753-.3H81.7V80.646h7.357v1.816h-.967c-1.117,0-1.324.168-2.882,2.132l-4.263,4.6V92c0,.718.363.971,1.4.971h1.609v1.755h-10.3V92.974h1.609c1.037,0,1.4-.253,1.4-.971V89.195l-5.02-5.552c-.83-.971-.718-1.182-3.024-1.182V80.646h9.319v1.816h-.664c-.675,0-.957.127-.957.38,0,.211.207.381.337.549l2.539,2.767a.618.618,0,0,0,1.01-.038ZM17.676,80.646h2.248v5.067H17.85a3.271,3.271,0,0,0-1.4-1.939,8.681,8.681,0,0,0-5.2-1.759c-2.452,0-4.521.76-4.521,1.879,0,3.1,14.022.634,14.022,6.5,0,3.061-3,4.771-8.4,4.771A15.812,15.812,0,0,1,6,93.7c-.523-.3-.744.286-.842,1.022H2.847V89.492H4.933a4.159,4.159,0,0,0,1.675,2.132c1.011.929,3.418,1.605,5.624,1.584,3.328-.033,4.468-.76,4.468-1.816s-1.131-1.309-4.778-1.879l-3.1-.507c-3.489-.531-6.033-1.31-6.033-4.1,0-2.893,3.217-4.707,8.306-4.707a10.945,10.945,0,0,1,5.664,1.258c.479.31.924.347.918-.816Zm43.869,8.483L61.59,83.5c0-.739-.385-.992-1.483-.992h-1.29V80.75h8.211v1.755H65.957c-1.1,0-1.484.254-1.484.992V94.836L61.26,94.81,50.853,84.954v7.158c0,.718.385.992,1.483.992h1.429v1.731H45.24V93.1h1.413c1.1,0,1.483-.274,1.483-.992V83.5c0-.739-.385-.992-1.483-.992H45.24V80.748h7.373ZM34.042,80.1c-6.542,0-10.64,2.893-10.64,7.537,0,4.561,4.039,7.432,10.44,7.432,6.8,0,10.753-2.829,10.753-7.663,0-4.349-4.267-7.305-10.554-7.305Zm-.148,13.133c-3.622,0-5.7-2.09-5.7-5.7,0-3.525,2.172-5.616,5.885-5.616,3.561,0,5.643,2.133,5.643,5.764,0,3.547-2.112,5.552-5.824,5.552Z" transform="translate(908.207 1634.9)"/>
  </g>
</svg>
