<svg xmlns="http://www.w3.org/2000/svg" width="188" height="56" viewBox="0 0 188 56">
  <defs>
    <style>
      .cls-1 {
        fill: none;
      }

      .cls-2 {
        fill: #bcbcbc;
        stroke: #bfbfbf;
        stroke-width: 0.094px;
      }
    </style>
  </defs>
  <g id="tinder" transform="translate(-1317 -1695)">
    <rect id="Rectangle_15" data-name="Rectangle 15" class="cls-1" width="188" height="56" transform="translate(1317 1695)"/>
    <path id="tinder-2" data-name="tinder" class="cls-2" d="M36.186,135.5a1.8,1.8,0,0,1,.433.391c.231.2.4.468.628.676a7.3,7.3,0,0,1,.688.907,6.654,6.654,0,0,1,.943,1.974,3.95,3.95,0,0,1,.207,1.535,2.918,2.918,0,0,1-.332,1.37,3.063,3.063,0,0,1-1.725,1.31,4.2,4.2,0,0,1-2.656-.124,3.244,3.244,0,0,1-.889-.54,2.166,2.166,0,0,1-.783-1.944,6.637,6.637,0,0,1,1.772-3.373c.075.142.012.309.066.457a1.7,1.7,0,0,0,.421.871,8.115,8.115,0,0,0,.848-.842,3.01,3.01,0,0,0,.486-1.091,3.626,3.626,0,0,0-.124-1.491Zm-10.861,5.923c1.387.012,2.781-.012,4.168.012,0,1.381.012,2.763-.006,4.144.984.018,1.968.006,2.958.006a2.9,2.9,0,0,1,.018.32c-.012,1.138.006,2.271-.012,3.409-.99.012-1.974,0-2.964.006.018,2.045-.006,4.085.012,6.13a2.347,2.347,0,0,1,.054.54,1.362,1.362,0,0,0,.118.457,2.345,2.345,0,0,0,.5.955,2.484,2.484,0,0,0,1.216.664,5.521,5.521,0,0,0,1.251.075.682.682,0,0,1,.036.219c-.006,1.067-.006,2.134,0,3.2a2.683,2.683,0,0,1-.054.439c-.6,0-1.2.042-1.8,0a5.157,5.157,0,0,1-1.079-.2,5.143,5.143,0,0,1-2.55-1.416,6.528,6.528,0,0,1-1.761-3.682,2.133,2.133,0,0,1-.048-.48,4.722,4.722,0,0,1-.06-1q-.005-6.9,0-13.795Zm20.251,3.84c.249-.066.516-.018.765-.075a9.7,9.7,0,0,1,1.553.036,5.067,5.067,0,0,1,1.067.172,6.768,6.768,0,0,1,3.48,2.057c.16.267.4.462.557.735a8.522,8.522,0,0,1,.859,1.98,11.338,11.338,0,0,1,.273,1.541c.03,1.144.012,2.295.018,3.439,0,2.287.01,4.573,0,6.852-1.387-.018-2.769-.006-4.15-.012a.326.326,0,0,1-.054-.042c-.006-3.2,0-6.391,0-9.58a4.918,4.918,0,0,0-.149-1.144,3.681,3.681,0,0,0-.6-1.049,5.688,5.688,0,0,0-.54-.462,2.975,2.975,0,0,0-.883-.344,1.749,1.749,0,0,1-.468-.054,4.2,4.2,0,0,0-1.874.255,2.877,2.877,0,0,0-1.118.889,3.055,3.055,0,0,0-.61,2.028c0,3.166.006,6.335,0,9.5-1.4.012-2.8-.006-4.2.012-.024-3.056,0-6.111-.012-9.167.006-.391-.006-.783.024-1.174.075-.2.024-.409.083-.6A7.71,7.71,0,0,1,40.286,149a6.162,6.162,0,0,1,1.118-1.583A5.542,5.542,0,0,1,42.6,146.4a6.893,6.893,0,0,1,2.981-1.142Zm49.68-.036a8.372,8.372,0,0,1,1.541-.03c.279.036.563.03.841.042.054.516.012,1.037.024,1.553v2.075a.969.969,0,0,1-.036.391c-.136-.1-.32-.066-.474-.107a4.08,4.08,0,0,0-1.868.213,2.975,2.975,0,0,0-1.666,1.429c-.1.124-.1.3-.213.421a7.154,7.154,0,0,0-.184,2.039c-.006,2.917.018,5.828-.012,8.744-1.382-.018-2.769,0-4.156-.012-.012-.012-.03-.036-.042-.048v-9.513c-.018-.4.075-.783.066-1.174a3.548,3.548,0,0,0,.13-.6,6.654,6.654,0,0,1,2.283-3.883,5.194,5.194,0,0,1,.836-.6,7.593,7.593,0,0,1,2.932-.94Zm-61.448.35c1.4.024,2.8-.006,4.2.012V161.85c0,.054,0,.16-.083.142h-4.1c-.036-.894-.006-1.8-.018-2.691.006-4.57,0-9.147.006-13.723Zm43.9,11c.355-.136.7-.314,1.061-.439.522-.2,1.031-.447,1.553-.646,1.079-.5,2.193-.913,3.284-1.381.261-.142.557-.207.812-.361.291-.113.581-.213.865-.344.249-.149.534-.207.788-.338.338-.136.664-.291,1.008-.415.35-.2.741-.291,1.091-.48.095-.065.249-.048.309-.16-.1-.142-.048-.32-.1-.474-.075-.279-.154-.551-.219-.824a7.745,7.745,0,0,0-1.174-2.3,7.415,7.415,0,0,0-2.472-2.205,7.751,7.751,0,0,0-2.057-.794,9.774,9.774,0,0,0-1.3-.2,3.98,3.98,0,0,0-1.216-.006,7.784,7.784,0,0,0-2.051.379,8.729,8.729,0,0,0-3.172,1.891c-.267.249-.486.54-.741.794a8.684,8.684,0,0,0-1.031,1.631,7.728,7.728,0,0,0-.794,2.751,5.448,5.448,0,0,0-.095,1.423,3.716,3.716,0,0,0,.095.889,4.488,4.488,0,0,0,.142.889,7.492,7.492,0,0,0,.634,1.789,8.234,8.234,0,0,0,3.184,3.492,7.772,7.772,0,0,0,2.97,1.1,9.157,9.157,0,0,0,2.608.048,6.392,6.392,0,0,0,.877-.124,7.512,7.512,0,0,0,3.457-1.725,4.807,4.807,0,0,0,.777-.777,6.579,6.579,0,0,0,.925-1.316,8.05,8.05,0,0,0,.628-1.553.652.652,0,0,0-.261-.024c-1.387.006-2.769-.006-4.156,0-.13,0-.13.178-.213.249a4.789,4.789,0,0,1-.859.907,5.062,5.062,0,0,1-1.547.671,1.553,1.553,0,0,0-.409.066c-.332.024-.671.012-1.008.006a8.9,8.9,0,0,1-1.109-.273,5.211,5.211,0,0,1-1.523-1.073c-.107-.13-.279-.231-.314-.4a1.267,1.267,0,0,1,.291-.124c.172-.03.3-.166.468-.213Zm-1.707-3a2.111,2.111,0,0,1-.018-.671c.095-.3.124-.622.237-.925a6,6,0,0,1,1.144-1.856,4.759,4.759,0,0,1,.712-.581c.2-.107.4-.224.6-.32a4.234,4.234,0,0,1,1.162-.291,4.431,4.431,0,0,1,1.118-.036,4.045,4.045,0,0,1,2.6,1.334c.066.154-.154.166-.243.224-.385.213-.82.32-1.2.54a3.747,3.747,0,0,0-.486.19c-1.227.534-2.478,1-3.694,1.559-.649.259-1.3.531-1.929.833Zm-4.419-15.25c-1.3-.012-2.6,0-3.895-.006-.095.012-.207-.03-.285.042.012,2.787,0,5.578.006,8.365a.829.829,0,0,1-.024.3c-.118-.018-.178-.13-.267-.2a6.2,6.2,0,0,0-2.012-1.21,8.284,8.284,0,0,0-1.565-.391c-.6-.012-1.216-.03-1.826.006a1.088,1.088,0,0,1-.189.042,7.4,7.4,0,0,0-3.67,1.7,8.583,8.583,0,0,0-1.571,1.8,10.114,10.114,0,0,0-1.085,2.236,9.676,9.676,0,0,0-.332,1.464,14.406,14.406,0,0,0-.054,2.318,5.161,5.161,0,0,1,.1.6,8.246,8.246,0,0,0,.557,1.9,9.94,9.94,0,0,0,.9,1.654,7.272,7.272,0,0,0,.735.865,6.345,6.345,0,0,0,1.346,1.138,8.124,8.124,0,0,0,2.057,1.02,8.48,8.48,0,0,0,1.429.315c.118-.012.224.075.35.06.575.018,1.156.018,1.731,0,.095,0,.19-.042.291-.048a7.533,7.533,0,0,0,1.15-.2,9.124,9.124,0,0,0,1.511-.575,7.563,7.563,0,0,0,1.886-1.28,7.327,7.327,0,0,0,1.714-2.229,7.252,7.252,0,0,0,.51-1.138,10.253,10.253,0,0,0,.5-3.326Q71.586,145.943,71.586,138.332ZM67.37,154.386a4.621,4.621,0,0,1-2.7,3.776c-.136.075-.315.066-.409.2a1.39,1.39,0,0,0-.492.066,5.128,5.128,0,0,1-1.535-.083c-.213-.1-.447-.142-.664-.255a3.135,3.135,0,0,1-.788-.474,4.405,4.405,0,0,1-1.025-1.1,4.71,4.71,0,0,1-.569-1.257,3.643,3.643,0,0,1-.171-.755,7.292,7.292,0,0,1,.095-1.9c.066-.2.107-.4.178-.6a6.31,6.31,0,0,1,.5-.949,3.714,3.714,0,0,1,.492-.646,4.378,4.378,0,0,1,1.672-1.091,3.18,3.18,0,0,1,.7-.172,3.5,3.5,0,0,1,1.491.066,5.016,5.016,0,0,1,1.772,1.025c.184.172.32.385.5.557a5.052,5.052,0,0,1,.952,3.592Zm27.852,5.525h1.553a3.532,3.532,0,0,1,0,.355c-.178.024-.355-.006-.528.018-.024.534,0,1.061-.012,1.595a4.238,4.238,0,0,0-.474-.006c-.018-.421-.012-.848-.006-1.267,0-.113.024-.243-.075-.32-.154-.024-.309.006-.462-.018a2.365,2.365,0,0,1,0-.356Zm1.838.006a4.064,4.064,0,0,1,.658.012c-.012.172.13.291.172.447.06.2.149.391.207.6.048.089.13.166.1.279a9.42,9.42,0,0,1,.486-1.334c.207-.006.421-.012.634,0,.012.634,0,1.28,0,1.915a2.637,2.637,0,0,1-.433,0c.006-.447,0-.889.012-1.328a.879.879,0,0,0-.149.149c-.075.4-.285.771-.385,1.174a1.379,1.379,0,0,1-.35.006c-.036-.224-.2-.409-.2-.64-.16-.2-.166-.474-.291-.694-.083.16-.018.35-.036.522a7.989,7.989,0,0,1-.024.842c-.142,0-.3.048-.415-.054.018-.628,0-1.257.006-1.891Z" transform="translate(1348.181 1574)"/>
  </g>
</svg>
