<svg xmlns="http://www.w3.org/2000/svg" width="188" height="56" viewBox="0 0 188 56">
  <defs>
    <style>
      .cls-1 {
        fill: none;
      }

      .cls-2 {
        fill: #bcbcbc;
        fill-rule: evenodd;
      }
    </style>
  </defs>
  <g id="visa" transform="translate(-1550 -1695)">
    <rect id="Rectangle_16" data-name="Rectangle 16" class="cls-1" width="188" height="56" transform="translate(1550 1695)"/>
    <path id="visa-2" data-name="visa" class="cls-2" d="M22.94,65.775l4.467-14.729h3.986L26.925,65.775ZM21.158,51.048l-3.585,6.244a15.07,15.07,0,0,0-1.7,3.495h-.055c.061-1.31-.122-2.916-.137-3.828l-.4-5.911H8.573l-.069.4a2.781,2.781,0,0,1,3.027,2.637l1.307,11.694H16.97l8.348-14.727Zm31,14.727-.11-2.191-4.977,0-1.02,2.2H41.723l7.849-14.7h5.312l1.329,14.7ZM51.7,57.087a33.793,33.793,0,0,1-.007-3.463H51.63c-.243.729-1.284,2.927-1.743,4.01L48.4,60.863H51.9Zm-16.121,9.1A11.147,11.147,0,0,1,29.563,64.5l1.9-2.9a7.369,7.369,0,0,0,4.3,1.442,1.85,1.85,0,0,0,1.745-.84c.555-.958-.128-1.473-1.685-2.355l-.77-.5c-2.309-1.58-3.306-3.075-2.22-5.69.7-1.673,2.529-2.941,5.554-2.941a8.925,8.925,0,0,1,5.182,1.784l-2.183,2.56A4.848,4.848,0,0,0,38.3,53.711a1.858,1.858,0,0,0-1.7.762c-.415.823.134,1.383,1.347,2.136l.911.581c2.8,1.767,3.47,3.621,2.767,5.354C40.416,65.526,38.051,66.192,35.577,66.192ZM12.161,78.586a70.607,70.607,0,0,1,43.925-4.412l.2-4.86c-20.209-2.207-34.709,4.23-44.125,8.791v.479ZM57.3,53.321h-.262V51.726h.608c.386,0,.583.135.583.459a.408.408,0,0,1-.417.436l.445.7h-.3l-.413-.683H57.3Zm.293-.906c.2,0,.371-.019.371-.251,0-.193-.189-.216-.347-.216H57.3v.467Zm-.008,1.524A1.443,1.443,0,1,1,59,52.5a1.388,1.388,0,0,1-1.412,1.444Zm0-2.634a1.2,1.2,0,1,0,1.1,1.193,1.12,1.12,0,0,0-1.1-1.191Z" transform="translate(1610.496 1658.279)"/>
  </g>
</svg>
