<svg xmlns="http://www.w3.org/2000/svg" width="279.483" height="75.786" viewBox="0 0 279.483 75.786">
  <defs>
    <style>
      .cls-1 {
        fill: #fff;
      }
    </style>
  </defs>
  <g id="brand" transform="translate(-316 -732)">
    <g id="brandicon">
      <path id="Rectangle_1" data-name="Rectangle 1" class="cls-1" d="M17.067,0h7.768A17.067,17.067,0,0,1,41.9,17.067v0A17.067,17.067,0,0,1,24.835,34.134H0a0,0,0,0,1,0,0V17.067A17.067,17.067,0,0,1,17.067,0Z" transform="translate(316 732)"/>
      <path id="Rectangle_2" data-name="Rectangle 2" class="cls-1" d="M0,0H38.716A16.981,16.981,0,0,1,55.7,16.981v0A16.981,16.981,0,0,1,38.716,33.962H16.981A16.981,16.981,0,0,1,0,16.981V0A0,0,0,0,1,0,0Z" transform="translate(316 773.824)"/>
    </g>
    <path id="Path_1" data-name="Path 1" class="cls-1" d="M29.6-9.8a8.8,8.8,0,0,1-3.185,7.178Q23.226,0,17.836,0H4.165V-33.32H17.1q5.145,0,8.036,2.254t2.891,7.056q0,3.136-3.577,5.929A8.8,8.8,0,0,1,29.6-9.8ZM21.315-23.912a3.653,3.653,0,0,0-1.3-3.185,6.584,6.584,0,0,0-3.847-.931H10.486v8.281h4.7A8.264,8.264,0,0,0,19.649-20.8,3.448,3.448,0,0,0,21.315-23.912ZM22.981-9.751a4.6,4.6,0,0,0-1.4-3.577,5.42,5.42,0,0,0-3.8-1.274h-7.3v9.359h6.86a6.557,6.557,0,0,0,4.116-1.176A3.968,3.968,0,0,0,22.981-9.751ZM40.327-34.594V0H34.006V-34.055ZM55.811-4.508a6.735,6.735,0,0,0,3.136-.759A26.061,26.061,0,0,0,62.181-7.3V-23.765h6.37V0H64.386L63.308-2.548A18.991,18.991,0,0,1,58.6-.1a13.6,13.6,0,0,1-4.459.882q-4.508,0-6.321-2.548a12.093,12.093,0,0,1-1.813-7.105v-14.9h6.37v14.6a5.672,5.672,0,0,0,.907,3.43A2.961,2.961,0,0,0,55.811-4.508ZM96.089,11.27H89.67V-.931A9.778,9.778,0,0,1,84.427.588a11.529,11.529,0,0,1-8.746-3.357q-3.21-3.356-3.21-9.09a14.291,14.291,0,0,1,1.446-6.566,10.4,10.4,0,0,1,4.189-4.41A12.92,12.92,0,0,1,84.623-24.4a8.829,8.829,0,0,1,3.454.784,12.407,12.407,0,0,1,3.259,2.009l1.421-2.156h3.332ZM89.67-6.811V-16.954A9.011,9.011,0,0,0,87.22-18.5a6.861,6.861,0,0,0-2.548-.465,4.91,4.91,0,0,0-4.116,1.985,8.189,8.189,0,0,0-1.519,5.12,8.07,8.07,0,0,0,1.494,5.072,4.938,4.938,0,0,0,4.141,1.936,6.49,6.49,0,0,0,2.474-.49A11.792,11.792,0,0,0,89.67-6.811Zm21.707,2.3a6.735,6.735,0,0,0,3.136-.759A26.062,26.062,0,0,0,117.747-7.3V-23.765h6.37V0h-4.165l-1.078-2.548a18.991,18.991,0,0,1-4.7,2.45,13.6,13.6,0,0,1-4.459.882q-4.508,0-6.321-2.548a12.093,12.093,0,0,1-1.813-7.105v-14.9h6.37v14.6a5.672,5.672,0,0,0,.906,3.43A2.961,2.961,0,0,0,111.377-4.508ZM139.993-24.4a10.469,10.469,0,0,1,6.027,1.666,9.909,9.909,0,0,1,3.626,4.483,16.2,16.2,0,0,1,1.176,6.3V-10H134.8a6.247,6.247,0,0,0,2.132,3.822,7.922,7.922,0,0,0,5.022,1.323,10.812,10.812,0,0,0,3.528-.539,20.315,20.315,0,0,0,3.381-1.568l1.862,4.606a14.043,14.043,0,0,1-3.92,2.18,14.757,14.757,0,0,1-5,.76q-6.762,0-10.266-3.308t-3.5-9.139a14.4,14.4,0,0,1,1.445-6.615,10.329,10.329,0,0,1,4.141-4.386A12.6,12.6,0,0,1,139.993-24.4Zm-.147,5.439a4.7,4.7,0,0,0-3.283,1.2,5.9,5.9,0,0,0-1.715,3.5h9.947a6.539,6.539,0,0,0-1.739-3.528A4.494,4.494,0,0,0,139.846-18.963Zm29.694.294a9.45,9.45,0,0,0-3.993,1.176,20.334,20.334,0,0,0-4.434,2.989V0h-6.37V-23.765h3.332l2.107,3.969A20.657,20.657,0,0,1,164.2-22.54a8.9,8.9,0,0,1,4.067-1.225ZM179.585.588a17.281,17.281,0,0,1-4.263-.637,10.909,10.909,0,0,1-3.969-1.813l1.911-4.312a15.8,15.8,0,0,0,6.223,1.617,6.619,6.619,0,0,0,2.7-.539q1.225-.539,1.225-1.519,0-1.911-4.165-3.185a18.627,18.627,0,0,1-5.635-2.891,5.435,5.435,0,0,1-2.254-4.459,6.356,6.356,0,0,1,2.5-5.316,10.768,10.768,0,0,1,6.762-1.935,15.26,15.26,0,0,1,4.067.686,14.166,14.166,0,0,1,4.067,1.813l-1.911,4.263a23.029,23.029,0,0,0-3.308-1.225,11.463,11.463,0,0,0-3.013-.392,3.272,3.272,0,0,0-2.034.612,1.783,1.783,0,0,0-.809,1.445q0,.637.956,1.152A20.412,20.412,0,0,0,181.4-14.9a18.808,18.808,0,0,1,5.782,3.234,6.075,6.075,0,0,1,2.3,4.8,6.512,6.512,0,0,1-2.548,5.513Q184.387.588,179.585.588Z" transform="translate(406 787)"/>
  </g>
</svg>
